<svg width="24" height="24" viewBox="0 0 24 24" fill="none" xmlns="http://www.w3.org/2000/svg">
<path d="M19.2049 22.0428L13.3956 19.0109C12.9874 18.7991 12.4984 18.7991 12.089 19.0109L7.9246 21.1704C6.89567 21.7053 5.69228 20.8426 5.88929 19.712L6.68325 15.1414C6.76157 14.692 6.61085 14.2344 6.27974 13.9159L1.34473 9.3656" stroke="white" stroke-width="2" stroke-linecap="round" stroke-linejoin="round"/>
<path d="M19.5807 18.4836L18.8014 15.1414C18.723 14.692 18.8738 14.2344 19.2049 13.916L22.5741 10.6785C23.4072 9.87909 22.9492 8.48397 21.7979 8.31777L17.1386 7.6471C16.6818 7.58155 16.2878 7.29831 16.0837 6.88983L14.0009 2.7289C13.4857 1.70007 11.9987 1.70007 11.4836 2.7289L9.40208 6.88983C9.19797 7.29831 8.80277 7.58155 8.34586 7.6471L4.76392 8.22589" stroke="white" stroke-width="2" stroke-linecap="round" stroke-linejoin="round"/>
</svg>
