<svg width="30" height="30" viewBox="0 0 30 30" fill="none" xmlns="http://www.w3.org/2000/svg">
<path fill-rule="evenodd" clip-rule="evenodd" d="M2 7.05556C2 3.26359 2.0406 2 7.05556 2C12.0705 2 12.1111 3.26359 12.1111 7.05556C12.1111 10.8475 12.1271 12.1111 7.05556 12.1111C1.98401 12.1111 2 10.8475 2 7.05556Z" stroke="white" stroke-width="2.5" stroke-linecap="round" stroke-linejoin="round"/>
<path d="M22.9444 12.1111C28.016 12.1111 28 10.8475 28 7.05556C28 3.26359 27.9594 2 22.9444 2C17.9294 2 17.8889 3.26359 17.8889 7.05556C17.8889 8.97807 17.8848 10.2507 18.5416 11.0382" stroke="white" stroke-width="2.5" stroke-linecap="round" stroke-linejoin="round"/>
<path d="M7.05556 17.8889C2.0406 17.8889 2 19.1525 2 22.9444C2 26.7364 1.98401 28 7.05556 28C12.1271 28 12.1111 26.7364 12.1111 22.9444C12.1111 21.2992 12.1035 20.1299 11.6852 19.3333" stroke="white" stroke-width="2.5" stroke-linecap="round" stroke-linejoin="round"/>
<path fill-rule="evenodd" clip-rule="evenodd" d="M17.8889 22.9444C17.8889 19.1525 17.9294 17.8889 22.9444 17.8889C27.9594 17.8889 28 19.1525 28 22.9444C28 26.7364 28.016 28 22.9444 28C17.8728 28 17.8889 26.7364 17.8889 22.9444Z" stroke="white" stroke-width="2.5" stroke-linecap="round" stroke-linejoin="round"/>
</svg>
