<svg width="23" height="25" viewBox="0 0 23 25" fill="none" xmlns="http://www.w3.org/2000/svg">
<path d="M14.7783 21.3692C14.7755 20.7918 15.0037 20.2372 15.412 19.8289C15.8203 19.4206 16.3749 19.1925 16.9522 19.1953C17.3177 19.2051 17.6751 19.3051 17.9924 19.4866C19.0297 20.0842 20.3549 19.7308 20.9569 18.696L21.7059 17.4478C21.9957 16.9503 22.0753 16.3576 21.9269 15.8011C21.7786 15.2448 21.4145 14.7704 20.9153 14.4833C20.4162 14.1961 20.0521 13.7218 19.9037 13.1654C19.7554 12.609 19.8349 12.0164 20.1248 11.5188C20.3133 11.1897 20.5862 10.9169 20.9153 10.7283" stroke="white" stroke-width="2" stroke-linecap="round" stroke-linejoin="round"/>
<path d="M5.80157 5.71466C6.1166 5.90164 6.47542 6.0021 6.84174 6.00591C8.0303 6.00604 8.99863 5.0516 9.01569 3.86316C9.01293 3.28756 9.23965 2.73457 9.64569 2.32657C10.0517 1.91858 10.6037 1.6892 11.1792 1.68921H12.6043C13.1918 1.68897 13.7544 1.92655 14.1639 2.34785C14.5735 2.76915 14.7951 3.33827 14.7782 3.92557C14.782 4.29189 14.8825 4.6507 15.0694 4.96574C15.3601 5.46137 15.8359 5.82104 16.3921 5.96543C16.9482 6.10983 17.5389 6.02709 18.0339 5.73546C19.0739 5.13954 20.4001 5.49783 20.9984 6.5364L21.7058 7.76379V7.77419" stroke="white" stroke-width="2" stroke-linecap="round" stroke-linejoin="round"/>
<path d="M2.83703 6.51559L2.07771 7.76379C1.48005 8.80106 1.83346 10.1263 2.86824 10.7283C3.54087 11.1166 3.95523 11.8343 3.95523 12.611C3.95523 13.3877 3.54087 14.1053 2.86824 14.4937C1.83476 15.0916 1.48097 16.4136 2.07771 17.4477L2.79543 18.6856C3.0758 19.1914 3.54621 19.5648 4.10258 19.7229C4.65894 19.881 5.25538 19.811 5.75991 19.5281C6.2559 19.2387 6.84693 19.1594 7.40167 19.3079C7.95639 19.4563 8.42883 19.8202 8.71399 20.3186C8.90096 20.6337 9.00142 20.9925 9.00523 21.3588C9.00523 22.5594 9.97853 23.5327 11.1792 23.5327H12.6043" stroke="white" stroke-width="2" stroke-linecap="round" stroke-linejoin="round"/>
<path d="M11.8968 15.6066C13.5513 15.6066 14.8925 14.2654 14.8925 12.6109C14.8925 10.9564 13.5513 9.61523 11.8968 9.61523C10.2423 9.61523 8.90112 10.9564 8.90112 12.6109C8.90112 14.2654 10.2423 15.6066 11.8968 15.6066Z" stroke="white" stroke-width="2" stroke-linecap="round" stroke-linejoin="round"/>
</svg>
