<svg width="24" height="24" viewBox="0 0 24 24" fill="none" xmlns="http://www.w3.org/2000/svg">
<path d="M11.9988 23H6.84487C3.24162 23 1 20.4564 1 16.8567V7.14336C1 3.54368 3.25233 1 6.84487 1H17.154C20.7572 1 23 3.54368 23 7.14336V16.8567C23 20.4564 20.7572 23 17.1528 23H16.1621" stroke="white" stroke-width="2" stroke-linecap="round" stroke-linejoin="round"/>
<path d="M6.03607 12C6.03607 13.2165 7.02191 14.2024 8.23845 14.2024C9.45499 14.2024 10.4409 13.2165 10.4409 12C10.4409 10.7846 9.45618 9.7988 8.24202 9.79761H8.23845" stroke="white" stroke-width="2" stroke-linecap="round" stroke-linejoin="round"/>
<path d="M10.4444 12.0001H17.9577V14.2025" stroke="white" stroke-width="2" stroke-linecap="round" stroke-linejoin="round"/>
<path d="M14.5943 14.2025V12.0001" stroke="white" stroke-width="2" stroke-linecap="round" stroke-linejoin="round"/>
</svg>
